{
  "source": "C:\\Users\\Peter\\Desktop\\stuff\\MIUN\\quantitative_research\\video_compression\\videos\\BVI-HD\\BVI-HD_CDVL_videos\\ORIG\\Surfers_1920x1080_30fps.mp4",
  "output": "C:\\Users\\Peter\\Desktop\\stuff\\MIUN\\quantitative_research\\video_compression\\compressed_videos\\BVI-HD\\hevc\\1.5\\Surfers_1920x1080_30fps_hevc.mp4",
  "codec": "hevc",
  "ok": "Input #0, mov,mp4,m4a,3gp,3g2,mj2, from 'C:\\Users\\Peter\\Desktop\\stuff\\MIUN\\quantitative_research\\video_compression\\videos\\BVI-HD\\BVI-HD_CDVL_videos\\ORIG\\Surfers_1920x1080_30fps.mp4':\n  Metadata:\n    major_brand     : isom\n    minor_version   : 512\n    compatible_brands: isomiso2avc1mp41\n    encoder         : Lavf54.28.101\n  Duration: 00:00:05.00, start: 0.000000, bitrate: 232762 kb/s\n  Stream #0:0[0x1](und): Video: h264 (High 4:4:4 Predictive) (avc1 / 0x31637661), yuv420p(progressive), 1920x1080, 232759 kb/s, 30 fps, 30 tbr, 30 tbn (default)\n    Metadata:\n      handler_name    : VideoHandler\n      vendor_id       : [0][0][0][0]\n[out#0/mp4 @ 00000114b00babc0] Codec AVOption b:a (set bitrate (in bits/s)) has not been used for any stream. The most likely reason is either wrong type (e.g. a video option with no video streams) or that it is a private option of some decoder which was not actually used for any stream.\nStream mapping:\n  Stream #0:0 -> #0:0 (h264 (native) -> hevc (libx265))\nPress [q] to stop, [?] for help\n[libx265 @ 00000114b068a480] Unknown option: \"aq-mode.\nx265 [info]: HEVC encoder version 4.1+190-8f11c33ac\nx265 [info]: build info [Windows][GCC 15.1.0][64 bit] 10bit\nx265 [info]: using cpu capabilities: MMX2 SSE2Fast LZCNT SSSE3 SSE4.2 AVX FMA3 BMI2 AVX2\nx265 [info]: Main 10 profile, Level-4 (Main tier)\nx265 [info]: Thread pool created using 12 threads\nx265 [info]: Slices                              : 1\nx265 [info]: frame threads / pool features       : 3 / wpp(17 rows)\nx265 [info]: Coding QT: max CU size, min CU size : 64 / 8\nx265 [info]: Residual QT: max TU size, max depth : 32 / 1 inter / 1 intra\nx265 [info]: ME / range / subpel / merge         : star / 57 / 3 / 3\nx265 [info]: Keyframe min / max / scenecut / bias  : 25 / 250 / 40 / 5.00 \nx265 [info]: Lookahead / bframes / badapt        : 25 / 4 / 2\nx265 [info]: b-pyramid / weightp / weightb       : 1 / 1 / 0\nx265 [info]: References / ref-limit  cu / depth  : 4 / on / on\nx265 [info]: AQ: mode / str / qg-size / cu-tree  : 2 / 1.0 / 32 / 1\nx265 [info]: Rate Control / qCompress            : ABR-1500 kbps / 0.60\nx265 [info]: VBV/HRD buffer / max-rate / init    : 1500 / 1500 / 0.750\nx265 [info]: tools: rect limit-modes rd=4 psy-rd=2.00 rdoq=2 psy-rdoq=1.00\nx265 [info]: tools: rskip mode=1 signhide tmvp strong-intra-smoothing lslices=4\nx265 [info]: tools: deblock sao dhdr10-info\nOutput #0, mp4, to 'C:\\Users\\Peter\\Desktop\\stuff\\MIUN\\quantitative_research\\video_compression\\compressed_videos\\BVI-HD\\hevc\\1.5\\Surfers_1920x1080_30fps_hevc.mp4':\n  Metadata:\n    major_brand     : isom\n    minor_version   : 512\n    compatible_brands: isomiso2avc1mp41\n    encoder         : Lavf62.3.100\n  Stream #0:0(und): Video: hevc (hev1 / 0x31766568), yuv420p10le(tv, progressive), 1920x1080, q=2-31, 1500 kb/s, 30 fps, 15360 tbn (default)\n    Metadata:\n      encoder         : Lavc62.11.100 libx265\n      handler_name    : VideoHandler\n      vendor_id       : [0][0][0][0]\n    Side data:\n      cpb: bitrate max/min/avg: 1500000/0/1500000 buffer size: 1500000 vbv_delay: N/A\nframe=    0 fps=0.0 q=0.0 size=       0KiB time=N/A bitrate=N/A speed=N/A elapsed=0:00:00.51    \nframe=    0 fps=0.0 q=0.0 size=       0KiB time=N/A bitrate=N/A speed=N/A elapsed=0:00:01.07    \nframe=    0 fps=0.0 q=0.0 size=       0KiB time=N/A bitrate=N/A speed=N/A elapsed=0:00:01.59    \nframe=    0 fps=0.0 q=0.0 size=       0KiB time=N/A bitrate=N/A speed=N/A elapsed=0:00:02.10    \nframe=    0 fps=0.0 q=0.0 size=       0KiB time=N/A bitrate=N/A speed=N/A elapsed=0:00:02.61    \nframe=    0 fps=0.0 q=0.0 size=       0KiB time=N/A bitrate=N/A speed=N/A elapsed=0:00:03.14    \nframe=    0 fps=0.0 q=0.0 size=       0KiB time=N/A bitrate=N/A speed=N/A elapsed=0:00:03.65    \nframe=    1 fps=0.2 q=40.3 size=       0KiB time=-00:00:00.03 bitrate=N/A speed=N/A elapsed=0:00:04.15    \nframe=    1 fps=0.2 q=40.3 size=       0KiB time=-00:00:00.03 bitrate=N/A speed=N/A elapsed=0:00:04.69    \nframe=    2 fps=0.4 q=44.3 size=       0KiB time=00:00:00.00 bitrate=N/A speed=   0x elapsed=0:00:05.25    \nframe=    3 fps=0.5 q=46.3 size=       0KiB time=00:00:00.03 bitrate=  10.6kbits/s speed=0.00577x elapsed=0:00:05.78    \nframe=    3 fps=0.5 q=46.3 size=       0KiB time=00:00:00.03 bitrate=  10.6kbits/s speed=0.00528x elapsed=0:00:06.31    \nframe=    3 fps=0.4 q=46.3 size=       0KiB time=00:00:00.03 bitrate=  10.6kbits/s speed=0.00488x elapsed=0:00:06.82    \nframe=    3 fps=0.4 q=46.3 size=       0KiB time=00:00:00.03 bitrate=  10.6kbits/s speed=0.00454x elapsed=0:00:07.34    \nframe=    4 fps=0.5 q=47.9 size=       0KiB time=00:00:00.06 bitrate=   5.3kbits/s speed=0.00846x elapsed=0:00:07.87    \nframe=    4 fps=0.5 q=47.9 size=       0KiB time=00:00:00.06 bitrate=   5.3kbits/s speed=0.00791x elapsed=0:00:08.42    \nframe=    4 fps=0.4 q=47.9 size=       0KiB time=00:00:00.06 bitrate=   5.3kbits/s speed=0.00745x elapsed=0:00:08.94    \nframe=    5 fps=0.5 q=46.9 size=       0KiB time=00:00:00.10 bitrate=   3.5kbits/s speed=0.0106x elapsed=0:00:09.46    \nframe=    5 fps=0.5 q=46.9 size=       0KiB time=00:00:00.10 bitrate=   3.5kbits/s speed=0.01x elapsed=0:00:09.98    \nframe=    5 fps=0.5 q=46.9 size=       0KiB time=00:00:00.10 bitrate=   3.5kbits/s speed=0.00952x elapsed=0:00:10.49    \nframe=    6 fps=0.5 q=40.6 size=       0KiB time=00:00:00.13 bitrate=   2.6kbits/s speed=0.0121x elapsed=0:00:11.02    \nframe=    6 fps=0.5 q=40.6 size=       0KiB time=00:00:00.13 bitrate=   2.6kbits/s speed=0.0115x elapsed=0:00:11.54    \nframe=    7 fps=0.6 q=43.1 size=       0KiB time=00:00:00.16 bitrate=   2.1kbits/s speed=0.0138x elapsed=0:00:12.06    \nframe=    7 fps=0.6 q=43.1 size=       0KiB time=00:00:00.16 bitrate=   2.1kbits/s speed=0.0132x elapsed=0:00:12.58    \nframe=    8 fps=0.6 q=43.3 size=       0KiB time=00:00:00.20 bitrate=   1.8kbits/s speed=0.0152x elapsed=0:00:13.11    \nframe=    8 fps=0.6 q=43.3 size=       0KiB time=00:00:00.20 bitrate=   1.8kbits/s speed=0.0147x elapsed=0:00:13.64    \nframe=    8 fps=0.6 q=43.3 size=       0KiB time=00:00:00.20 bitrate=   1.8kbits/s speed=0.0141x elapsed=0:00:14.16    \nframe=    8 fps=0.5 q=43.3 size=       0KiB time=00:00:00.20 bitrate=   1.8kbits/s speed=0.0136x elapsed=0:00:14.69    \nframe=    8 fps=0.5 q=43.3 size=       0KiB time=00:00:00.20 bitrate=   1.8kbits/s speed=0.0131x elapsed=0:00:15.21    \nframe=    8 fps=0.5 q=43.3 size=       0KiB time=00:00:00.20 bitrate=   1.8kbits/s speed=0.0127x elapsed=0:00:15.72    \nframe=    9 fps=0.6 q=42.6 size=       0KiB time=00:00:00.23 bitrate=   1.5kbits/s speed=0.0144x elapsed=0:00:16.25    \nframe=    9 fps=0.5 q=42.6 size=       0KiB time=00:00:00.23 bitrate=   1.5kbits/s speed=0.0139x elapsed=0:00:16.79    \nframe=   10 fps=0.6 q=38.6 size=       0KiB time=00:00:00.26 bitrate=   1.3kbits/s speed=0.0154x elapsed=0:00:17.30    \nframe=   10 fps=0.6 q=38.6 size=       0KiB time=00:00:00.26 bitrate=   1.3kbits/s speed=0.015x elapsed=0:00:17.82    \nframe=   10 fps=0.5 q=38.6 size=       0KiB time=00:00:00.26 bitrate=   1.3kbits/s speed=0.0145x elapsed=0:00:18.34    \nframe=   11 fps=0.6 q=42.3 size=       0KiB time=00:00:00.30 bitrate=   1.2kbits/s speed=0.0159x elapsed=0:00:18.88    \nframe=   11 fps=0.6 q=42.3 size=       0KiB time=00:00:00.30 bitrate=   1.2kbits/s speed=0.0155x elapsed=0:00:19.40    \nframe=   11 fps=0.6 q=42.3 size=       0KiB time=00:00:00.30 bitrate=   1.2kbits/s speed=0.0151x elapsed=0:00:19.92    \nframe=   11 fps=0.5 q=42.3 size=       0KiB time=00:00:00.30 bitrate=   1.2kbits/s speed=0.0147x elapsed=0:00:20.43    \nframe=   11 fps=0.5 q=42.3 size=       0KiB time=00:00:00.30 bitrate=   1.2kbits/s speed=0.0143x elapsed=0:00:20.94    \nframe=   12 fps=0.6 q=43.0 size=       0KiB time=00:00:00.33 bitrate=   1.1kbits/s speed=0.0155x elapsed=0:00:21.47    \nframe=   12 fps=0.5 q=43.0 size=       0KiB time=00:00:00.33 bitrate=   1.1kbits/s speed=0.0152x elapsed=0:00:21.99    \nframe=   13 fps=0.6 q=42.8 size=       0KiB time=00:00:00.36 bitrate=   1.0kbits/s speed=0.0163x elapsed=0:00:22.55    \nframe=   13 fps=0.6 q=42.8 size=       0KiB time=00:00:00.36 bitrate=   1.0kbits/s speed=0.0159x elapsed=0:00:23.08    \nframe=   13 fps=0.5 q=42.8 size=       0KiB time=00:00:00.36 bitrate=   1.0kbits/s speed=0.0155x elapsed=0:00:23.63    \nframe=   14 fps=0.6 q=42.8 size=       0KiB time=00:00:00.40 bitrate=   0.9kbits/s speed=0.0166x elapsed=0:00:24.16    \nframe=   14 fps=0.6 q=42.8 size=       0KiB time=00:00:00.40 bitrate=   0.9kbits/s speed=0.0162x elapsed=0:00:24.67    \nframe=   14 fps=0.6 q=42.8 size=       0KiB time=00:00:00.40 bitrate=   0.9kbits/s speed=0.0159x elapsed=0:00:25.19    \nframe=   15 fps=0.6 q=39.2 size=       0KiB time=00:00:00.43 bitrate=   0.8kbits/s speed=0.0169x elapsed=0:00:25.70    \nframe=   15 fps=0.6 q=39.2 size=       0KiB time=00:00:00.43 bitrate=   0.8kbits/s speed=0.0165x elapsed=0:00:26.24    \nframe=   16 fps=0.6 q=41.2 size=       0KiB time=00:00:00.46 bitrate=   0.8kbits/s speed=0.0174x elapsed=0:00:26.80    \nframe=   16 fps=0.6 q=41.2 size=       0KiB time=00:00:00.46 bitrate=   0.8kbits/s speed=0.0171x elapsed=0:00:27.34    \nframe=   16 fps=0.6 q=41.2 size=       0KiB time=00:00:00.46 bitrate=   0.8kbits/s speed=0.0168x elapsed=0:00:27.85    \nframe=   17 fps=0.6 q=42.8 size=       0KiB time=00:00:00.50 bitrate=   0.7kbits/s speed=0.0176x elapsed=0:00:28.37    \nframe=   17 fps=0.6 q=42.8 size=       0KiB time=00:00:00.50 bitrate=   0.7kbits/s speed=0.0173x elapsed=0:00:28.91    \nframe=   17 fps=0.6 q=42.8 size=       0KiB time=00:00:00.50 bitrate=   0.7kbits/s speed=0.017x elapsed=0:00:29.48    \nframe=   17 fps=0.6 q=42.8 size=       0KiB time=00:00:00.50 bitrate=   0.7kbits/s speed=0.0167x elapsed=0:00:30.00    \nframe=   18 fps=0.6 q=42.7 size=       0KiB time=00:00:00.53 bitrate=   0.7kbits/s speed=0.0174x elapsed=0:00:30.57    \nframe=   18 fps=0.6 q=42.7 size=       0KiB time=00:00:00.53 bitrate=   0.7kbits/s speed=0.0171x elapsed=0:00:31.11    \nframe=   18 fps=0.6 q=42.7 size=       0KiB time=00:00:00.53 bitrate=   0.7kbits/s speed=0.0168x elapsed=0:00:31.67    \nframe=   18 fps=0.6 q=42.7 size=       0KiB time=00:00:00.53 bitrate=   0.7kbits/s speed=0.0165x elapsed=0:00:32.28    \nframe=   18 fps=0.5 q=42.7 size=       0KiB time=00:00:00.53 bitrate=   0.7kbits/s speed=0.0162x elapsed=0:00:32.91    \nframe=   18 fps=0.5 q=42.7 size=       0KiB time=00:00:00.53 bitrate=   0.7kbits/s speed=0.016x elapsed=0:00:33.43    \nframe=   19 fps=0.6 q=39.6 size=       0KiB time=00:00:00.56 bitrate=   0.6kbits/s speed=0.0167x elapsed=0:00:33.98    \nframe=   19 fps=0.6 q=39.6 size=       0KiB time=00:00:00.56 bitrate=   0.6kbits/s speed=0.0164x elapsed=0:00:34.52    \nframe=   19 fps=0.5 q=39.6 size=       0KiB time=00:00:00.56 bitrate=   0.6kbits/s speed=0.0162x elapsed=0:00:35.07    \nframe=   19 fps=0.5 q=39.6 size=       0KiB time=00:00:00.56 bitrate=   0.6kbits/s speed=0.0159x elapsed=0:00:35.59    \nframe=   20 fps=0.6 q=40.9 size=       0KiB time=00:00:00.60 bitrate=   0.6kbits/s speed=0.0166x elapsed=0:00:36.11    \nframe=   20 fps=0.5 q=40.9 size=       0KiB time=00:00:00.60 bitrate=   0.6kbits/s speed=0.0164x elapsed=0:00:36.65    \nframe=   20 fps=0.5 q=40.9 size=       0KiB time=00:00:00.60 bitrate=   0.6kbits/s speed=0.0161x elapsed=0:00:37.17    \nframe=   21 fps=0.6 q=42.7 size=       0KiB time=00:00:00.63 bitrate=   0.6kbits/s speed=0.0168x elapsed=0:00:37.71    \nframe=   21 fps=0.5 q=42.7 size=       0KiB time=00:00:00.63 bitrate=   0.6kbits/s speed=0.0166x elapsed=0:00:38.22    \nframe=   21 fps=0.5 q=42.7 size=       0KiB time=00:00:00.63 bitrate=   0.6kbits/s speed=0.0163x elapsed=0:00:38.75    \nframe=   21 fps=0.5 q=42.7 size=       0KiB time=00:00:00.63 bitrate=   0.6kbits/s speed=0.0161x elapsed=0:00:39.28    \nframe=   22 fps=0.6 q=43.4 size=       0KiB time=00:00:00.66 bitrate=   0.5kbits/s speed=0.0167x elapsed=0:00:39.80    \nframe=   22 fps=0.5 q=43.4 size=       0KiB time=00:00:00.66 bitrate=   0.5kbits/s speed=0.0165x elapsed=0:00:40.32    \nframe=   22 fps=0.5 q=43.4 size=       0KiB time=00:00:00.66 bitrate=   0.5kbits/s speed=0.0163x elapsed=0:00:40.84    \nframe=   23 fps=0.6 q=39.6 size=       0KiB time=00:00:00.70 bitrate=   0.5kbits/s speed=0.0169x elapsed=0:00:41.36    \nframe=   24 fps=0.6 q=41.4 size=       0KiB time=00:00:00.73 bitrate=   0.5kbits/s speed=0.0175x elapsed=0:00:41.87    \nframe=   24 fps=0.6 q=41.4 size=       0KiB time=00:00:00.73 bitrate=   0.5kbits/s speed=0.0173x elapsed=0:00:42.39    \nframe=   24 fps=0.6 q=41.4 size=       0KiB time=00:00:00.73 bitrate=   0.5kbits/s speed=0.0171x elapsed=0:00:42.91    \nframe=   24 fps=0.6 q=41.4 size=       0KiB time=00:00:00.73 bitrate=   0.5kbits/s speed=0.0169x elapsed=0:00:43.42    \nframe=   25 fps=0.6 q=43.4 size=       0KiB time=00:00:00.76 bitrate=   0.5kbits/s speed=0.0174x elapsed=0:00:43.94    \nframe=   25 fps=0.6 q=43.4 size=       0KiB time=00:00:00.76 bitrate=   0.5kbits/s speed=0.0172x elapsed=0:00:44.46    \nframe=   26 fps=0.6 q=43.6 size=       0KiB time=00:00:00.80 bitrate=   0.4kbits/s speed=0.0178x elapsed=0:00:44.98    \nframe=   26 fps=0.6 q=43.6 size=       0KiB time=00:00:00.80 bitrate=   0.4kbits/s speed=0.0176x elapsed=0:00:45.49    \nframe=   26 fps=0.6 q=43.6 size=       0KiB time=00:00:00.80 bitrate=   0.4kbits/s speed=0.0174x elapsed=0:00:46.02    \nframe=   27 fps=0.6 q=40.0 size=       0KiB time=00:00:00.83 bitrate=   0.4kbits/s speed=0.0179x elapsed=0:00:46.55    \nframe=   28 fps=0.6 q=41.9 size=       0KiB time=00:00:00.86 bitrate=   0.4kbits/s speed=0.0184x elapsed=0:00:47.07    \nframe=   28 fps=0.6 q=41.9 size=       0KiB time=00:00:00.86 bitrate=   0.4kbits/s speed=0.0182x elapsed=0:00:47.62    \nframe=   28 fps=0.6 q=41.9 size=       0KiB time=00:00:00.86 bitrate=   0.4kbits/s speed=0.018x elapsed=0:00:48.13    \nframe=   28 fps=0.6 q=41.9 size=       0KiB time=00:00:00.86 bitrate=   0.4kbits/s speed=0.0178x elapsed=0:00:48.66    \nframe=   28 fps=0.6 q=41.9 size=       0KiB time=00:00:00.86 bitrate=   0.4kbits/s speed=0.0176x elapsed=0:00:49.19    \nframe=   29 fps=0.6 q=44.1 size=       0KiB time=00:00:00.90 bitrate=   0.4kbits/s speed=0.0181x elapsed=0:00:49.75    \nframe=   29 fps=0.6 q=44.1 size=       0KiB time=00:00:00.90 bitrate=   0.4kbits/s speed=0.0179x elapsed=0:00:50.30    \nframe=   29 fps=0.6 q=44.1 size=       0KiB time=00:00:00.90 bitrate=   0.4kbits/s speed=0.0177x elapsed=0:00:50.83    \nframe=   29 fps=0.6 q=44.1 size=       0KiB time=00:00:00.90 bitrate=   0.4kbits/s speed=0.0175x elapsed=0:00:51.37    \nframe=   30 fps=0.6 q=43.6 size=       0KiB time=00:00:00.93 bitrate=   0.4kbits/s speed=0.018x elapsed=0:00:51.90    \nframe=   30 fps=0.6 q=43.6 size=       0KiB time=00:00:00.93 bitrate=   0.4kbits/s speed=0.0178x elapsed=0:00:52.43    \nframe=   30 fps=0.6 q=43.6 size=       0KiB time=00:00:00.93 bitrate=   0.4kbits/s speed=0.0176x elapsed=0:00:52.94    \nframe=   30 fps=0.6 q=43.6 size=       0KiB time=00:00:00.93 bitrate=   0.4kbits/s speed=0.0175x elapsed=0:00:53.46    \nframe=   30 fps=0.6 q=43.6 size=       0KiB time=00:00:00.93 bitrate=   0.4kbits/s speed=0.0173x elapsed=0:00:53.98    \nframe=   30 fps=0.6 q=43.6 size=       0KiB time=00:00:00.93 bitrate=   0.4kbits/s speed=0.0171x elapsed=0:00:54.52    \nframe=   30 fps=0.5 q=43.6 size=       0KiB time=00:00:00.93 bitrate=   0.4kbits/s speed=0.017x elapsed=0:00:55.04    \nframe=   30 fps=0.5 q=43.6 size=       0KiB time=00:00:00.93 bitrate=   0.4kbits/s speed=0.0168x elapsed=0:00:55.57    \nframe=   31 fps=0.6 q=38.8 size=       0KiB time=00:00:00.96 bitrate=   0.4kbits/s speed=0.0172x elapsed=0:00:56.08    \nframe=   32 fps=0.6 q=41.8 size=       0KiB time=00:00:01.00 bitrate=   0.4kbits/s speed=0.0177x elapsed=0:00:56.60    \nframe=   32 fps=0.6 q=41.8 size=       0KiB time=00:00:01.00 bitrate=   0.4kbits/s speed=0.0175x elapsed=0:00:57.12    \nframe=   32 fps=0.6 q=41.8 size=       0KiB time=00:00:01.00 bitrate=   0.4kbits/s speed=0.0173x elapsed=0:00:57.65    \nframe=   33 fps=0.6 q=43.5 size=       0KiB time=00:00:01.03 bitrate=   0.3kbits/s speed=0.0178x elapsed=0:00:58.18    \nframe=   33 fps=0.6 q=43.5 size=       0KiB time=00:00:01.03 bitrate=   0.3kbits/s speed=0.0176x elapsed=0:00:58.71    \nframe=   34 fps=0.6 q=42.9 size=       0KiB time=00:00:01.06 bitrate=   0.3kbits/s speed=0.018x elapsed=0:00:59.24    \nframe=   34 fps=0.6 q=42.9 size=       0KiB time=00:00:01.06 bitrate=   0.3kbits/s speed=0.0178x elapsed=0:00:59.77    \nframe=   34 fps=0.6 q=42.9 size=       0KiB time=00:00:01.06 bitrate=   0.3kbits/s speed=0.0177x elapsed=0:01:00.28    \nframe=   34 fps=0.6 q=42.9 size=       0KiB time=00:00:01.06 bitrate=   0.3kbits/s speed=0.0175x elapsed=0:01:00.80    \nframe=   34 fps=0.6 q=42.9 size=       0KiB time=00:00:01.06 bitrate=   0.3kbits/s speed=0.0174x elapsed=0:01:01.31    \nframe=   34 fps=0.5 q=42.9 size=       0KiB time=00:00:01.06 bitrate=   0.3kbits/s speed=0.0172x elapsed=0:01:01.85    \nframe=   34 fps=0.5 q=42.9 size=       0KiB time=00:00:01.06 bitrate=   0.3kbits/s speed=0.0171x elapsed=0:01:02.37    \nframe=   36 fps=0.6 q=40.9 size=       0KiB time=00:00:01.13 bitrate=   0.3kbits/s speed=0.018x elapsed=0:01:02.89    \nframe=   36 fps=0.6 q=40.9 size=       0KiB time=00:00:01.13 bitrate=   0.3kbits/s speed=0.0179x elapsed=0:01:03.41    \nframe=   36 fps=0.6 q=40.9 size=       0KiB time=00:00:01.13 bitrate=   0.3kbits/s speed=0.0177x elapsed=0:01:03.93    \nframe=   36 fps=0.6 q=40.9 size=       0KiB time=00:00:01.13 bitrate=   0.3kbits/s speed=0.0176x elapsed=0:01:04.46    \nframe=   36 fps=0.6 q=40.9 size=       0KiB time=00:00:01.13 bitrate=   0.3kbits/s speed=0.0174x elapsed=0:01:05.00    \nframe=   37 fps=0.6 q=42.8 size=       0KiB time=00:00:01.16 bitrate=   0.3kbits/s speed=0.0178x elapsed=0:01:05.53    \nframe=   37 fps=0.6 q=42.8 size=       0KiB time=00:00:01.16 bitrate=   0.3kbits/s speed=0.0177x elapsed=0:01:06.05    \nframe=   38 fps=0.6 q=42.5 size=       0KiB time=00:00:01.20 bitrate=   0.3kbits/s speed=0.018x elapsed=0:01:06.58    \nframe=   38 fps=0.6 q=42.5 size=       0KiB time=00:00:01.20 bitrate=   0.3kbits/s speed=0.0179x elapsed=0:01:07.12    \nframe=   38 fps=0.6 q=42.5 size=       0KiB time=00:00:01.20 bitrate=   0.3kbits/s speed=0.0177x elapsed=0:01:07.62    \nframe=   39 fps=0.6 q=38.1 size=       0KiB time=00:00:01.23 bitrate=   0.3kbits/s speed=0.0181x elapsed=0:01:08.15    \nframe=   39 fps=0.6 q=38.1 size=       0KiB time=00:00:01.23 bitrate=   0.3kbits/s speed=0.018x elapsed=0:01:08.68    \nframe=   39 fps=0.6 q=38.1 size=       0KiB time=00:00:01.23 bitrate=   0.3kbits/s speed=0.0178x elapsed=0:01:09.19    \nframe=   40 fps=0.6 q=40.8 size=       0KiB time=00:00:01.26 bitrate=   0.3kbits/s speed=0.0182x elapsed=0:01:09.71    \nframe=   41 fps=0.6 q=42.6 size=       0KiB time=00:00:01.30 bitrate=   0.3kbits/s speed=0.0185x elapsed=0:01:10.25    \nframe=   41 fps=0.6 q=42.6 size=       0KiB time=00:00:01.30 bitrate=   0.3kbits/s speed=0.0184x elapsed=0:01:10.76    \nframe=   41 fps=0.6 q=42.6 size=       0KiB time=00:00:01.30 bitrate=   0.3kbits/s speed=0.0182x elapsed=0:01:11.28    \nframe=   41 fps=0.6 q=42.6 size=       0KiB time=00:00:01.30 bitrate=   0.3kbits/s speed=0.0181x elapsed=0:01:11.80    \nframe=   41 fps=0.6 q=42.6 size=       0KiB time=00:00:01.30 bitrate=   0.3kbits/s speed=0.018x elapsed=0:01:12.31    \nframe=   42 fps=0.6 q=39.8 size=       0KiB time=00:00:01.33 bitrate=   0.3kbits/s speed=0.0183x elapsed=0:01:12.85    \nframe=   42 fps=0.6 q=39.8 size=       0KiB time=00:00:01.33 bitrate=   0.3kbits/s speed=0.0182x elapsed=0:01:13.39    \nframe=   43 fps=0.6 q=40.9 size=     256KiB time=00:00:01.36 bitrate=1534.8kbits/s speed=0.0185x elapsed=0:01:13.91    \nframe=   43 fps=0.6 q=40.9 size=     256KiB time=00:00:01.36 bitrate=1534.8kbits/s speed=0.0184x elapsed=0:01:14.43    \nframe=   44 fps=0.6 q=42.6 size=     256KiB time=00:00:01.40 bitrate=1498.2kbits/s speed=0.0187x elapsed=0:01:14.94    \nframe=   44 fps=0.6 q=42.6 size=     256KiB time=00:00:01.40 bitrate=1498.2kbits/s speed=0.0186x elapsed=0:01:15.45    \nframe=   44 fps=0.6 q=42.6 size=     256KiB time=00:00:01.40 bitrate=1498.2kbits/s speed=0.0184x elapsed=0:01:16.00    \nframe=   44 fps=0.6 q=42.6 size=     256KiB time=00:00:01.40 bitrate=1498.2kbits/s speed=0.0183x elapsed=0:01:16.52    \nframe=   45 fps=0.6 q=42.8 size=     256KiB time=00:00:01.40 bitrate=1498.2kbits/s speed=0.0182x elapsed=0:01:17.04    \nframe=   45 fps=0.6 q=42.8 size=     256KiB time=00:00:01.43 bitrate=1463.4kbits/s speed=0.0185x elapsed=0:01:17.58    \nframe=   45 fps=0.6 q=42.8 size=     256KiB time=00:00:01.43 bitrate=1463.4kbits/s speed=0.0183x elapsed=0:01:18.11    \nframe=   45 fps=0.6 q=42.8 size=     256KiB time=00:00:01.43 bitrate=1463.4kbits/s speed=0.0182x elapsed=0:01:18.63    \nframe=   45 fps=0.6 q=42.8 size=     256KiB time=00:00:01.43 bitrate=1463.4kbits/s speed=0.0181x elapsed=0:01:19.14    \nframe=   46 fps=0.6 q=39.3 size=     256KiB time=00:00:01.46 bitrate=1430.1kbits/s speed=0.0184x elapsed=0:01:19.66    \nframe=   46 fps=0.6 q=39.3 size=     256KiB time=00:00:01.46 bitrate=1430.1kbits/s speed=0.0183x elapsed=0:01:20.19    \nframe=   46 fps=0.6 q=39.3 size=     256KiB time=00:00:01.46 bitrate=1430.1kbits/s speed=0.0182x elapsed=0:01:20.71    \nframe=   47 fps=0.6 q=41.7 size=     256KiB time=00:00:01.50 bitrate=1398.3kbits/s speed=0.0185x elapsed=0:01:21.23    \nframe=   48 fps=0.6 q=43.6 size=     256KiB time=00:00:01.53 bitrate=1367.9kbits/s speed=0.0188x elapsed=0:01:21.74    \nframe=   48 fps=0.6 q=43.6 size=     256KiB time=00:00:01.53 bitrate=1367.9kbits/s speed=0.0186x elapsed=0:01:22.26    \nframe=   48 fps=0.6 q=43.6 size=     256KiB time=00:00:01.53 bitrate=1367.9kbits/s speed=0.0185x elapsed=0:01:22.78    \nframe=   49 fps=0.6 q=43.3 size=     256KiB time=00:00:01.56 bitrate=1338.8kbits/s speed=0.0188x elapsed=0:01:23.30    \nframe=   49 fps=0.6 q=43.3 size=     256KiB time=00:00:01.56 bitrate=1338.8kbits/s speed=0.0187x elapsed=0:01:23.83    \nframe=   49 fps=0.6 q=43.3 size=     256KiB time=00:00:01.56 bitrate=1338.8kbits/s speed=0.0186x elapsed=0:01:24.37    \nframe=   49 fps=0.6 q=43.3 size=     256KiB time=00:00:01.56 bitrate=1338.8kbits/s speed=0.0185x elapsed=0:01:24.89    \nframe=   49 fps=0.6 q=43.3 size=     256KiB time=00:00:01.56 bitrate=1338.8kbits/s speed=0.0183x elapsed=0:01:25.44    \nframe=   51 fps=0.6 q=42.2 size=     256KiB time=00:00:01.63 bitrate=1284.2kbits/s speed=0.019x elapsed=0:01:25.95    \nframe=   51 fps=0.6 q=42.2 size=     256KiB time=00:00:01.63 bitrate=1284.2kbits/s speed=0.0189x elapsed=0:01:26.46    \nframe=   52 fps=0.6 q=43.4 size=     256KiB time=00:00:01.66 bitrate=1258.5kbits/s speed=0.0192x elapsed=0:01:26.99    \nframe=   52 fps=0.6 q=43.4 size=     256KiB time=00:00:01.66 bitrate=1258.5kbits/s speed=0.019x elapsed=0:01:27.51    \nframe=   53 fps=0.6 q=43.4 size=     256KiB time=00:00:01.70 bitrate=1233.8kbits/s speed=0.0193x elapsed=0:01:28.06    \nframe=   53 fps=0.6 q=43.4 size=     256KiB time=00:00:01.70 bitrate=1233.8kbits/s speed=0.0192x elapsed=0:01:28.63    \nframe=   53 fps=0.6 q=43.4 size=     256KiB time=00:00:01.70 bitrate=1233.8kbits/s speed=0.0191x elapsed=0:01:29.14    \nframe=   53 fps=0.6 q=43.4 size=     256KiB time=00:00:01.70 bitrate=1233.8kbits/s speed=0.019x elapsed=0:01:29.66    \nframe=   53 fps=0.6 q=43.4 size=     256KiB time=00:00:01.70 bitrate=1233.8kbits/s speed=0.0188x elapsed=0:01:30.21    \nframe=   54 fps=0.6 q=43.6 size=     256KiB time=00:00:01.73 bitrate=1210.1kbits/s speed=0.0191x elapsed=0:01:30.76    \nframe=   54 fps=0.6 q=43.6 size=     256KiB time=00:00:01.73 bitrate=1210.1kbits/s speed=0.019x elapsed=0:01:31.28    \nframe=   54 fps=0.6 q=43.6 size=     256KiB time=00:00:01.73 bitrate=1210.1kbits/s speed=0.0189x elapsed=0:01:31.83    \nframe=   54 fps=0.6 q=43.6 size=     256KiB time=00:00:01.73 bitrate=1210.1kbits/s speed=0.0188x elapsed=0:01:32.35    \nframe=   54 fps=0.6 q=43.6 size=     256KiB time=00:00:01.73 bitrate=1210.1kbits/s speed=0.0187x elapsed=0:01:32.86    \nframe=   55 fps=0.6 q=40.1 size=     256KiB time=00:00:01.76 bitrate=1187.3kbits/s speed=0.0189x elapsed=0:01:33.41    \nframe=   56 fps=0.6 q=41.8 size=     256KiB time=00:00:01.80 bitrate=1165.3kbits/s speed=0.0192x elapsed=0:01:33.93    \nframe=   56 fps=0.6 q=41.8 size=     256KiB time=00:00:01.80 bitrate=1165.3kbits/s speed=0.019x elapsed=0:01:34.49    \nframe=   56 fps=0.6 q=41.8 size=     256KiB time=00:00:01.80 bitrate=1165.3kbits/s speed=0.0189x elapsed=0:01:35.01    \nframe=   56 fps=0.6 q=41.8 size=     256KiB time=00:00:01.80 bitrate=1165.3kbits/s speed=0.0188x elapsed=0:01:35.53    \nframe=   56 fps=0.6 q=41.8 size=     256KiB time=00:00:01.80 bitrate=1165.3kbits/s speed=0.0187x elapsed=0:01:36.07    \nframe=   56 fps=0.6 q=41.8 size=     256KiB time=00:00:01.80 bitrate=1165.3kbits/s speed=0.0186x elapsed=0:01:36.61    \nframe=   57 fps=0.6 q=43.5 size=     256KiB time=00:00:01.83 bitrate=1144.1kbits/s speed=0.0189x elapsed=0:01:37.15    \nframe=   57 fps=0.6 q=43.5 size=     256KiB time=00:00:01.83 bitrate=1144.1kbits/s speed=0.0188x elapsed=0:01:37.68    \nframe=   57 fps=0.6 q=43.5 size=     256KiB time=00:00:01.83 bitrate=1144.1kbits/s speed=0.0187x elapsed=0:01:38.20    \nframe=   58 fps=0.6 q=40.3 size=     256KiB time=00:00:01.86 bitrate=1123.7kbits/s speed=0.0189x elapsed=0:01:38.72    \nframe=   59 fps=0.6 q=41.4 size=     256KiB time=00:00:01.90 bitrate=1103.9kbits/s speed=0.0191x elapsed=0:01:39.27    \nframe=   59 fps=0.6 q=41.4 size=     256KiB time=00:00:01.90 bitrate=1103.9kbits/s speed=0.019x elapsed=0:01:39.79    \nframe=   60 fps=0.6 q=43.5 size=     256KiB time=00:00:01.93 bitrate=1084.9kbits/s speed=0.0193x elapsed=0:01:40.34    \nframe=   61 fps=0.6 q=43.5 size=     256KiB time=00:00:01.96 bitrate=1066.5kbits/s speed=0.0195x elapsed=0:01:40.84    \nframe=   61 fps=0.6 q=43.5 size=     256KiB time=00:00:01.96 bitrate=1066.5kbits/s speed=0.0194x elapsed=0:01:41.37    \nframe=   61 fps=0.6 q=43.5 size=     256KiB time=00:00:01.96 bitrate=1066.5kbits/s speed=0.0193x elapsed=0:01:41.88    \nframe=   61 fps=0.6 q=43.5 size=     256KiB time=00:00:01.96 bitrate=1066.5kbits/s speed=0.0192x elapsed=0:01:42.40    \nframe=   62 fps=0.6 q=40.1 size=     256KiB time=00:00:02.00 bitrate=1048.8kbits/s speed=0.0194x elapsed=0:01:42.92    \nframe=   62 fps=0.6 q=40.1 size=     256KiB time=00:00:02.00 bitrate=1048.8kbits/s speed=0.0193x elapsed=0:01:43.46    \nframe=   62 fps=0.6 q=40.1 size=     256KiB time=00:00:02.00 bitrate=1048.8kbits/s speed=0.0192x elapsed=0:01:43.98    \nframe=   63 fps=0.6 q=41.6 size=     256KiB time=00:00:02.03 bitrate=1031.6kbits/s speed=0.0195x elapsed=0:01:44.50    \nframe=   63 fps=0.6 q=41.6 size=     256KiB time=00:00:02.03 bitrate=1031.6kbits/s speed=0.0194x elapsed=0:01:45.04    \nframe=   63 fps=0.6 q=41.6 size=     256KiB time=00:00:02.03 bitrate=1031.6kbits/s speed=0.0193x elapsed=0:01:45.60    \nframe=   63 fps=0.6 q=41.6 size=     256KiB time=00:00:02.03 bitrate=1031.6kbits/s speed=0.0192x elapsed=0:01:46.12    \nframe=   63 fps=0.6 q=41.6 size=     256KiB time=00:00:02.03 bitrate=1031.6kbits/s speed=0.0191x elapsed=0:01:46.64    \nframe=   64 fps=0.6 q=43.5 size=     256KiB time=00:00:02.06 bitrate=1014.9kbits/s speed=0.0193x elapsed=0:01:47.16    \nframe=   65 fps=0.6 q=43.6 size=     256KiB time=00:00:02.10 bitrate= 998.8kbits/s speed=0.0195x elapsed=0:01:47.67    \nframe=   65 fps=0.6 q=43.6 size=     256KiB time=00:00:02.10 bitrate= 998.8kbits/s speed=0.0194x elapsed=0:01:48.20    \nframe=   66 fps=0.6 q=40.3 size=     256KiB time=00:00:02.13 bitrate= 983.2kbits/s speed=0.0196x elapsed=0:01:48.74    \nframe=   66 fps=0.6 q=40.3 size=     256KiB time=00:00:02.13 bitrate= 983.2kbits/s speed=0.0195x elapsed=0:01:49.28    \nframe=   66 fps=0.6 q=40.3 size=     256KiB time=00:00:02.13 bitrate= 983.2kbits/s speed=0.0194x elapsed=0:01:49.79    \nframe=   67 fps=0.6 q=41.6 size=     256KiB time=00:00:02.16 bitrate= 968.1kbits/s speed=0.0196x elapsed=0:01:50.32    \nframe=   68 fps=0.6 q=43.5 size=     256KiB time=00:00:02.20 bitrate= 953.4kbits/s speed=0.0198x elapsed=0:01:50.84    \nframe=   68 fps=0.6 q=43.5 size=     256KiB time=00:00:02.20 bitrate= 953.4kbits/s speed=0.0197x elapsed=0:01:51.39    \nframe=   68 fps=0.6 q=43.5 size=     256KiB time=00:00:02.20 bitrate= 953.4kbits/s speed=0.0197x elapsed=0:01:51.91    \nframe=   69 fps=0.6 q=39.7 size=     256KiB time=00:00:02.23 bitrate= 939.2kbits/s speed=0.0199x elapsed=0:01:52.44    \nframe=   69 fps=0.6 q=39.7 size=     256KiB time=00:00:02.23 bitrate= 939.2kbits/s speed=0.0198x elapsed=0:01:52.96    \nframe=   69 fps=0.6 q=39.7 size=     256KiB time=00:00:02.23 bitrate= 939.2kbits/s speed=0.0197x elapsed=0:01:53.51    \nframe=   69 fps=0.6 q=39.7 size=     256KiB time=00:00:02.23 bitrate= 939.2kbits/s speed=0.0196x elapsed=0:01:54.02    \nframe=   69 fps=0.6 q=39.7 size=     256KiB time=00:00:02.23 bitrate= 939.2kbits/s speed=0.0195x elapsed=0:01:54.55    \nframe=   70 fps=0.6 q=41.2 size=     256KiB time=00:00:02.26 bitrate= 925.4kbits/s speed=0.0197x elapsed=0:01:55.07    \nframe=   70 fps=0.6 q=41.2 size=     256KiB time=00:00:02.26 bitrate= 925.4kbits/s speed=0.0196x elapsed=0:01:55.58    \nframe=   71 fps=0.6 q=43.6 size=     256KiB time=00:00:02.30 bitrate= 912.0kbits/s speed=0.0198x elapsed=0:01:56.10    \nframe=   71 fps=0.6 q=43.6 size=     256KiB time=00:00:02.30 bitrate= 912.0kbits/s speed=0.0197x elapsed=0:01:56.63    \nframe=   71 fps=0.6 q=43.6 size=     256KiB time=00:00:02.30 bitrate= 912.0kbits/s speed=0.0196x elapsed=0:01:57.15    \nframe=   72 fps=0.6 q=39.8 size=     256KiB time=00:00:02.33 bitrate= 898.9kbits/s speed=0.0198x elapsed=0:01:57.66    \nframe=   72 fps=0.6 q=39.8 size=     256KiB time=00:00:02.33 bitrate= 898.9kbits/s speed=0.0197x elapsed=0:01:58.19    \nframe=   72 fps=0.6 q=39.8 size=     256KiB time=00:00:02.33 bitrate= 898.9kbits/s speed=0.0197x elapsed=0:01:58.71    \nframe=   73 fps=0.6 q=41.5 size=     256KiB time=00:00:02.36 bitrate= 886.3kbits/s speed=0.0198x elapsed=0:01:59.23    \nframe=   74 fps=0.6 q=43.7 size=     256KiB time=00:00:02.40 bitrate= 874.0kbits/s speed=0.02x elapsed=0:01:59.76    \nframe=   75 fps=0.6 q=43.6 size=     256KiB time=00:00:02.43 bitrate= 862.0kbits/s speed=0.0202x elapsed=0:02:00.28    \nframe=   75 fps=0.6 q=43.6 size=     256KiB time=00:00:02.43 bitrate= 862.0kbits/s speed=0.0201x elapsed=0:02:00.80    \nframe=   76 fps=0.6 q=40.2 size=     256KiB time=00:00:02.46 bitrate= 850.3kbits/s speed=0.0203x elapsed=0:02:01.32    \nframe=   76 fps=0.6 q=40.2 size=     256KiB time=00:00:02.46 bitrate= 850.3kbits/s speed=0.0202x elapsed=0:02:01.84    \nframe=   76 fps=0.6 q=40.2 size=     256KiB time=00:00:02.46 bitrate= 850.3kbits/s speed=0.0202x elapsed=0:02:02.35    \nframe=   77 fps=0.6 q=41.9 size=     256KiB time=00:00:02.50 bitrate= 839.0kbits/s speed=0.0203x elapsed=0:02:02.87    \nframe=   77 fps=0.6 q=41.9 size=     256KiB time=00:00:02.50 bitrate= 839.0kbits/s speed=0.0203x elapsed=0:02:03.39    \nframe=   78 fps=0.6 q=43.4 size=     256KiB time=00:00:02.53 bitrate= 828.0kbits/s speed=0.0204x elapsed=0:02:03.90    \nframe=   79 fps=0.6 q=43.4 size=     256KiB time=00:00:02.56 bitrate= 817.2kbits/s speed=0.0206x elapsed=0:02:04.43    \nframe=   79 fps=0.6 q=43.4 size=     256KiB time=00:00:02.56 bitrate= 817.2kbits/s speed=0.0205x elapsed=0:02:04.96    \nframe=   79 fps=0.6 q=43.4 size=     256KiB time=00:00:02.56 bitrate= 817.2kbits/s speed=0.0205x elapsed=0:02:05.48    \nframe=   80 fps=0.6 q=39.9 size=     256KiB time=00:00:02.60 bitrate= 806.7kbits/s speed=0.0206x elapsed=0:02:06.00    \nframe=   80 fps=0.6 q=39.9 size=     256KiB time=00:00:02.60 bitrate= 806.7kbits/s speed=0.0206x elapsed=0:02:06.51    \nframe=   80 fps=0.6 q=39.9 size=     256KiB time=00:00:02.60 bitrate= 806.7kbits/s speed=0.0205x elapsed=0:02:07.04    \nframe=   80 fps=0.6 q=39.9 size=     256KiB time=00:00:02.60 bitrate= 806.7kbits/s speed=0.0204x elapsed=0:02:07.59    \nframe=   81 fps=0.6 q=41.7 size=     256KiB time=00:00:02.63 bitrate= 796.5kbits/s speed=0.0206x elapsed=0:02:08.12    \nframe=   82 fps=0.6 q=43.3 size=     256KiB time=00:00:02.66 bitrate= 786.6kbits/s speed=0.0207x elapsed=0:02:08.64    \nframe=   83 fps=0.6 q=43.7 size=     256KiB time=00:00:02.70 bitrate= 776.9kbits/s speed=0.0209x elapsed=0:02:09.16    \nframe=   83 fps=0.6 q=43.7 size=     256KiB time=00:00:02.70 bitrate= 776.9kbits/s speed=0.0208x elapsed=0:02:09.68    \nframe=   83 fps=0.6 q=43.7 size=     256KiB time=00:00:02.70 bitrate= 776.9kbits/s speed=0.0207x elapsed=0:02:10.21    \nframe=   83 fps=0.6 q=43.7 size=     256KiB time=00:00:02.70 bitrate= 776.9kbits/s speed=0.0207x elapsed=0:02:10.74    \nframe=   84 fps=0.6 q=39.5 size=     256KiB time=00:00:02.73 bitrate= 767.4kbits/s speed=0.0208x elapsed=0:02:11.25    \nframe=   84 fps=0.6 q=39.5 size=     256KiB time=00:00:02.73 bitrate= 767.4kbits/s speed=0.0207x elapsed=0:02:11.77    \nframe=   84 fps=0.6 q=39.5 size=     256KiB time=00:00:02.73 bitrate= 767.4kbits/s speed=0.0207x elapsed=0:02:12.29    \nframe=   85 fps=0.6 q=41.0 size=     512KiB time=00:00:02.76 bitrate=1516.1kbits/s speed=0.0208x elapsed=0:02:12.81    \nframe=   85 fps=0.6 q=41.0 size=     512KiB time=00:00:02.76 bitrate=1516.1kbits/s speed=0.0208x elapsed=0:02:13.32    \nframe=   85 fps=0.6 q=41.0 size=     512KiB time=00:00:02.76 bitrate=1516.1kbits/s speed=0.0207x elapsed=0:02:13.84    \nframe=   86 fps=0.6 q=43.4 size=     512KiB time=00:00:02.80 bitrate=1498.1kbits/s speed=0.0208x elapsed=0:02:14.37    \nframe=   87 fps=0.6 q=43.4 size=     512KiB time=00:00:02.83 bitrate=1480.5kbits/s speed=0.021x elapsed=0:02:14.91    \nframe=   88 fps=0.6 q=43.3 size=     512KiB time=00:00:02.86 bitrate=1463.3kbits/s speed=0.0212x elapsed=0:02:15.44    \nframe=   88 fps=0.6 q=43.3 size=     512KiB time=00:00:02.86 bitrate=1463.3kbits/s speed=0.0211x elapsed=0:02:15.97    \nframe=   88 fps=0.6 q=43.3 size=     512KiB time=00:00:02.86 bitrate=1463.3kbits/s speed=0.021x elapsed=0:02:16.55    \nframe=   88 fps=0.6 q=43.3 size=     512KiB time=00:00:02.86 bitrate=1463.3kbits/s speed=0.0209x elapsed=0:02:17.09    \nframe=   88 fps=0.6 q=43.3 size=     512KiB time=00:00:02.86 bitrate=1463.3kbits/s speed=0.0208x elapsed=0:02:17.61    \nframe=   88 fps=0.6 q=43.3 size=     512KiB time=00:00:02.86 bitrate=1463.3kbits/s speed=0.0208x elapsed=0:02:18.13    \nframe=   88 fps=0.6 q=43.3 size=     512KiB time=00:00:02.86 bitrate=1463.3kbits/s speed=0.0207x elapsed=0:02:18.65    \nframe=   88 fps=0.6 q=43.3 size=     512KiB time=00:00:02.86 bitrate=1463.3kbits/s speed=0.0206x elapsed=0:02:19.19    \nframe=   88 fps=0.6 q=43.3 size=     512KiB time=00:00:02.86 bitrate=1463.3kbits/s speed=0.0205x elapsed=0:02:19.70    \nframe=   89 fps=0.6 q=38.2 size=     512KiB time=00:00:02.90 bitrate=1446.4kbits/s speed=0.0207x elapsed=0:02:20.22    \nframe=   89 fps=0.6 q=38.2 size=     512KiB time=00:00:02.90 bitrate=1446.4kbits/s speed=0.0206x elapsed=0:02:20.73    \nframe=   89 fps=0.6 q=38.2 size=     512KiB time=00:00:02.90 bitrate=1446.4kbits/s speed=0.0205x elapsed=0:02:21.26    \nframe=   89 fps=0.6 q=38.2 size=     512KiB time=00:00:02.90 bitrate=1446.4kbits/s speed=0.0205x elapsed=0:02:21.80    \nframe=   89 fps=0.6 q=38.2 size=     512KiB time=00:00:02.90 bitrate=1446.4kbits/s speed=0.0204x elapsed=0:02:22.32    \nframe=   90 fps=0.6 q=42.6 size=     512KiB time=00:00:02.93 bitrate=1430.0kbits/s speed=0.0205x elapsed=0:02:22.86    \nframe=   90 fps=0.6 q=42.6 size=     512KiB time=00:00:02.93 bitrate=1430.0kbits/s speed=0.0205x elapsed=0:02:23.39    \nframe=   90 fps=0.6 q=42.6 size=     512KiB time=00:00:02.93 bitrate=1430.0kbits/s speed=0.0204x elapsed=0:02:23.91    \nframe=   92 fps=0.6 q=43.4 size=     512KiB time=00:00:03.00 bitrate=1398.2kbits/s speed=0.0208x elapsed=0:02:24.43    \nframe=   93 fps=0.6 q=43.4 size=     512KiB time=00:00:03.03 bitrate=1382.9kbits/s speed=0.0209x elapsed=0:02:24.96    \nframe=   93 fps=0.6 q=43.4 size=     512KiB time=00:00:03.03 bitrate=1382.9kbits/s speed=0.0209x elapsed=0:02:25.47    \nframe=   93 fps=0.6 q=43.4 size=     512KiB time=00:00:03.03 bitrate=1382.9kbits/s speed=0.0208x elapsed=0:02:26.02    \nframe=   93 fps=0.6 q=43.4 size=     512KiB time=00:00:03.03 bitrate=1382.9kbits/s speed=0.0207x elapsed=0:02:26.53    \nframe=   93 fps=0.6 q=43.4 size=     512KiB time=00:00:03.03 bitrate=1382.9kbits/s speed=0.0206x elapsed=0:02:27.08    \nframe=   93 fps=0.6 q=43.4 size=     512KiB time=00:00:03.03 bitrate=1382.9kbits/s speed=0.0205x elapsed=0:02:27.62    \nframe=   93 fps=0.6 q=43.4 size=     512KiB time=00:00:03.03 bitrate=1382.9kbits/s speed=0.0205x elapsed=0:02:28.15    \nframe=   93 fps=0.6 q=43.4 size=     512KiB time=00:00:03.03 bitrate=1382.9kbits/s speed=0.0204x elapsed=0:02:28.67    \nframe=   94 fps=0.6 q=40.4 size=     512KiB time=00:00:03.06 bitrate=1367.8kbits/s speed=0.0206x elapsed=0:02:29.20    \nframe=   94 fps=0.6 q=40.4 size=     512KiB time=00:00:03.06 bitrate=1367.8kbits/s speed=0.0205x elapsed=0:02:29.72    \nframe=   95 fps=0.6 q=42.5 size=     512KiB time=00:00:03.10 bitrate=1353.1kbits/s speed=0.0206x elapsed=0:02:30.26    \nframe=   95 fps=0.6 q=42.5 size=     512KiB time=00:00:03.10 bitrate=1353.1kbits/s speed=0.0206x elapsed=0:02:30.78    \nframe=   96 fps=0.6 q=43.5 size=     512KiB time=00:00:03.13 bitrate=1338.7kbits/s speed=0.0207x elapsed=0:02:31.30    \nframe=   97 fps=0.6 q=44.5 size=     512KiB time=00:00:03.16 bitrate=1324.6kbits/s speed=0.0209x elapsed=0:02:31.82    \nframe=   97 fps=0.6 q=44.5 size=     512KiB time=00:00:03.16 bitrate=1324.6kbits/s speed=0.0208x elapsed=0:02:32.33    \nframe=   97 fps=0.6 q=44.5 size=     512KiB time=00:00:03.16 bitrate=1324.6kbits/s speed=0.0207x elapsed=0:02:32.84    \nframe=   97 fps=0.6 q=44.5 size=     512KiB time=00:00:03.16 bitrate=1324.6kbits/s speed=0.0206x elapsed=0:02:33.37    \nframe=   98 fps=0.6 q=39.6 size=     512KiB time=00:00:03.20 bitrate=1310.8kbits/s speed=0.0208x elapsed=0:02:33.90    \nframe=   98 fps=0.6 q=39.6 size=     512KiB time=00:00:03.20 bitrate=1310.8kbits/s speed=0.0207x elapsed=0:02:34.41    \nframe=   98 fps=0.6 q=39.6 size=     512KiB time=00:00:03.20 bitrate=1310.8kbits/s speed=0.0207x elapsed=0:02:34.93    \nframe=   99 fps=0.6 q=42.9 size=     512KiB time=00:00:03.23 bitrate=1297.3kbits/s speed=0.0208x elapsed=0:02:35.46    \nframe=  100 fps=0.6 q=44.7 size=     512KiB time=00:00:03.26 bitrate=1284.1kbits/s speed=0.0209x elapsed=0:02:35.97    \nframe=  100 fps=0.6 q=44.7 size=     512KiB time=00:00:03.26 bitrate=1284.1kbits/s speed=0.0209x elapsed=0:02:36.49    \nframe=  100 fps=0.6 q=44.7 size=     512KiB time=00:00:03.26 bitrate=1284.1kbits/s speed=0.0208x elapsed=0:02:37.00    \nframe=  100 fps=0.6 q=44.7 size=     512KiB time=00:00:03.26 bitrate=1284.1kbits/s speed=0.0207x elapsed=0:02:37.52    \nframe=  100 fps=0.6 q=44.7 size=     512KiB time=00:00:03.26 bitrate=1284.1kbits/s speed=0.0207x elapsed=0:02:38.03    \nframe=  100 fps=0.6 q=44.7 size=     512KiB time=00:00:03.26 bitrate=1284.1kbits/s speed=0.0206x elapsed=0:02:38.56    \nframe=  101 fps=0.6 q=40.2 size=     512KiB time=00:00:03.30 bitrate=1271.1kbits/s speed=0.0207x elapsed=0:02:39.07    \nframe=  101 fps=0.6 q=40.2 size=     512KiB time=00:00:03.30 bitrate=1271.1kbits/s speed=0.0207x elapsed=0:02:39.61    \nframe=  101 fps=0.6 q=40.2 size=     512KiB time=00:00:03.30 bitrate=1271.1kbits/s speed=0.0206x elapsed=0:02:40.16    \nframe=  101 fps=0.6 q=40.2 size=     512KiB time=00:00:03.30 bitrate=1271.1kbits/s speed=0.0205x elapsed=0:02:40.68    \nframe=  101 fps=0.6 q=40.2 size=     512KiB time=00:00:03.30 bitrate=1271.1kbits/s speed=0.0205x elapsed=0:02:41.20    \nframe=  102 fps=0.6 q=42.1 size=     512KiB time=00:00:03.33 bitrate=1258.4kbits/s speed=0.0206x elapsed=0:02:41.71    \nframe=  103 fps=0.6 q=43.6 size=     512KiB time=00:00:03.36 bitrate=1245.9kbits/s speed=0.0208x elapsed=0:02:42.22    \nframe=  104 fps=0.6 q=44.8 size=     512KiB time=00:00:03.40 bitrate=1233.7kbits/s speed=0.0209x elapsed=0:02:42.75    \nframe=  104 fps=0.6 q=44.8 size=     512KiB time=00:00:03.40 bitrate=1233.7kbits/s speed=0.0208x elapsed=0:02:43.27    \nframe=  104 fps=0.6 q=44.8 size=     512KiB time=00:00:03.40 bitrate=1233.7kbits/s speed=0.0208x elapsed=0:02:43.81    \nframe=  104 fps=0.6 q=44.8 size=     512KiB time=00:00:03.40 bitrate=1233.7kbits/s speed=0.0207x elapsed=0:02:44.35    \nframe=  104 fps=0.6 q=44.8 size=     512KiB time=00:00:03.40 bitrate=1233.7kbits/s speed=0.0206x elapsed=0:02:44.88    \nframe=  105 fps=0.6 q=40.7 size=     512KiB time=00:00:03.43 bitrate=1221.7kbits/s speed=0.0208x elapsed=0:02:45.39    \nframe=  105 fps=0.6 q=40.7 size=     512KiB time=00:00:03.43 bitrate=1221.7kbits/s speed=0.0207x elapsed=0:02:45.91    \nframe=  105 fps=0.6 q=40.7 size=     512KiB time=00:00:03.43 bitrate=1221.7kbits/s speed=0.0206x elapsed=0:02:46.42    \nframe=  106 fps=0.6 q=42.9 size=     512KiB time=00:00:03.46 bitrate=1210.0kbits/s speed=0.0208x elapsed=0:02:46.96    \nframe=  108 fps=0.6 q=44.9 size=     512KiB time=00:00:03.53 bitrate=1187.2kbits/s speed=0.0211x elapsed=0:02:47.48    \nframe=  108 fps=0.6 q=44.9 size=     512KiB time=00:00:03.53 bitrate=1187.2kbits/s speed=0.021x elapsed=0:02:48.00    \nframe=  108 fps=0.6 q=44.9 size=     512KiB time=00:00:03.53 bitrate=1187.2kbits/s speed=0.021x elapsed=0:02:48.52    \nframe=  108 fps=0.6 q=44.9 size=     512KiB time=00:00:03.53 bitrate=1187.2kbits/s speed=0.0209x elapsed=0:02:49.03    \nframe=  109 fps=0.6 q=40.1 size=     512KiB time=00:00:03.56 bitrate=1176.1kbits/s speed=0.021x elapsed=0:02:49.55    \nframe=  109 fps=0.6 q=40.1 size=     512KiB time=00:00:03.56 bitrate=1176.1kbits/s speed=0.021x elapsed=0:02:50.07    \nframe=  109 fps=0.6 q=40.1 size=     512KiB time=00:00:03.56 bitrate=1176.1kbits/s speed=0.0209x elapsed=0:02:50.58    \nframe=  110 fps=0.6 q=43.3 size=     512KiB time=00:00:03.60 bitrate=1165.2kbits/s speed=0.021x elapsed=0:02:51.10    \nframe=  111 fps=0.6 q=44.8 size=     512KiB time=00:00:03.63 bitrate=1154.5kbits/s speed=0.0212x elapsed=0:02:51.62    \nframe=  111 fps=0.6 q=44.8 size=     512KiB time=00:00:03.63 bitrate=1154.5kbits/s speed=0.0211x elapsed=0:02:52.15    \nframe=  111 fps=0.6 q=44.8 size=     512KiB time=00:00:03.63 bitrate=1154.5kbits/s speed=0.021x elapsed=0:02:52.69    \nframe=  111 fps=0.6 q=44.8 size=     512KiB time=00:00:03.63 bitrate=1154.5kbits/s speed=0.021x elapsed=0:02:53.21    \nframe=  111 fps=0.6 q=44.8 size=     512KiB time=00:00:03.63 bitrate=1154.5kbits/s speed=0.0209x elapsed=0:02:53.73    \nframe=  112 fps=0.6 q=40.2 size=     512KiB time=00:00:03.66 bitrate=1144.0kbits/s speed=0.021x elapsed=0:02:54.23    \nframe=  112 fps=0.6 q=40.2 size=     512KiB time=00:00:03.66 bitrate=1144.0kbits/s speed=0.021x elapsed=0:02:54.75    \nframe=  112 fps=0.6 q=40.2 size=     512KiB time=00:00:03.66 bitrate=1144.0kbits/s speed=0.0209x elapsed=0:02:55.27    \nframe=  112 fps=0.6 q=40.2 size=     512KiB time=00:00:03.66 bitrate=1144.0kbits/s speed=0.0209x elapsed=0:02:55.83    \nframe=  113 fps=0.6 q=42.1 size=     512KiB time=00:00:03.70 bitrate=1133.7kbits/s speed=0.021x elapsed=0:02:56.35    \nframe=  115 fps=0.7 q=44.6 size=     512KiB time=00:00:03.76 bitrate=1113.6kbits/s speed=0.0213x elapsed=0:02:56.87    \nframe=  115 fps=0.6 q=44.6 size=     512KiB time=00:00:03.76 bitrate=1113.6kbits/s speed=0.0212x elapsed=0:02:57.37    \nframe=  115 fps=0.6 q=44.6 size=     512KiB time=00:00:03.76 bitrate=1113.6kbits/s speed=0.0212x elapsed=0:02:57.90    \nframe=  115 fps=0.6 q=44.6 size=     512KiB time=00:00:03.76 bitrate=1113.6kbits/s speed=0.0211x elapsed=0:02:58.44    \nframe=  115 fps=0.6 q=44.6 size=     512KiB time=00:00:03.76 bitrate=1113.6kbits/s speed=0.021x elapsed=0:02:58.97    \nframe=  116 fps=0.6 q=40.1 size=     512KiB time=00:00:03.80 bitrate=1103.9kbits/s speed=0.0212x elapsed=0:02:59.48    \nframe=  116 fps=0.6 q=40.1 size=     512KiB time=00:00:03.80 bitrate=1103.9kbits/s speed=0.0211x elapsed=0:03:00.02    \nframe=  117 fps=0.6 q=43.3 size=     512KiB time=00:00:03.83 bitrate=1094.3kbits/s speed=0.0212x elapsed=0:03:00.53    \nframe=  117 fps=0.6 q=43.3 size=     512KiB time=00:00:03.83 bitrate=1094.3kbits/s speed=0.0212x elapsed=0:03:01.05    \nframe=  117 fps=0.6 q=43.3 size=     512KiB time=00:00:03.83 bitrate=1094.3kbits/s speed=0.0211x elapsed=0:03:01.57    \nframe=  118 fps=0.6 q=44.3 size=     512KiB time=00:00:03.86 bitrate=1084.8kbits/s speed=0.0212x elapsed=0:03:02.10    \nframe=  119 fps=0.7 q=40.1 size=     512KiB time=00:00:03.90 bitrate=1075.6kbits/s speed=0.0214x elapsed=0:03:02.62    \nframe=  119 fps=0.6 q=40.1 size=     512KiB time=00:00:03.90 bitrate=1075.6kbits/s speed=0.0213x elapsed=0:03:03.14    \nframe=  119 fps=0.6 q=40.1 size=     512KiB time=00:00:03.90 bitrate=1075.6kbits/s speed=0.0212x elapsed=0:03:03.68    \nframe=  119 fps=0.6 q=40.1 size=     512KiB time=00:00:03.90 bitrate=1075.6kbits/s speed=0.0212x elapsed=0:03:04.24    \nframe=  119 fps=0.6 q=40.1 size=     512KiB time=00:00:03.90 bitrate=1075.6kbits/s speed=0.0211x elapsed=0:03:04.76    \nframe=  119 fps=0.6 q=40.1 size=     512KiB time=00:00:03.90 bitrate=1075.6kbits/s speed=0.021x elapsed=0:03:05.31    \nframe=  119 fps=0.6 q=40.1 size=     512KiB time=00:00:03.90 bitrate=1075.6kbits/s speed=0.021x elapsed=0:03:05.84    \nframe=  119 fps=0.6 q=40.1 size=     512KiB time=00:00:03.90 bitrate=1075.6kbits/s speed=0.0209x elapsed=0:03:06.35    \nframe=  120 fps=0.6 q=42.7 size=     512KiB time=00:00:03.93 bitrate=1066.4kbits/s speed=0.021x elapsed=0:03:06.88    \nframe=  120 fps=0.6 q=42.7 size=     512KiB time=00:00:03.93 bitrate=1066.4kbits/s speed=0.021x elapsed=0:03:07.40    \nframe=  121 fps=0.6 q=44.7 size=     512KiB time=00:00:03.96 bitrate=1057.5kbits/s speed=0.0211x elapsed=0:03:07.91    \nframe=  122 fps=0.6 q=44.6 size=     512KiB time=00:00:04.00 bitrate=1048.7kbits/s speed=0.0212x elapsed=0:03:08.45    \nframe=  122 fps=0.6 q=44.6 size=     512KiB time=00:00:04.00 bitrate=1048.7kbits/s speed=0.0212x elapsed=0:03:08.96    \nframe=  122 fps=0.6 q=44.6 size=     512KiB time=00:00:04.00 bitrate=1048.7kbits/s speed=0.0211x elapsed=0:03:09.47    \nframe=  123 fps=0.6 q=40.2 size=     512KiB time=00:00:04.03 bitrate=1040.0kbits/s speed=0.0212x elapsed=0:03:09.99    \nframe=  123 fps=0.6 q=40.2 size=     512KiB time=00:00:04.03 bitrate=1040.0kbits/s speed=0.0212x elapsed=0:03:10.51    \nframe=  124 fps=0.6 q=42.7 size=     768KiB time=00:00:04.06 bitrate=1547.2kbits/s speed=0.0213x elapsed=0:03:11.03    \nframe=  124 fps=0.6 q=42.7 size=     768KiB time=00:00:04.06 bitrate=1547.2kbits/s speed=0.0212x elapsed=0:03:11.55    \nframe=  126 fps=0.7 q=44.7 size=     768KiB time=00:00:04.13 bitrate=1522.2kbits/s speed=0.0215x elapsed=0:03:12.06    \nframe=  127 fps=0.7 q=44.9 size=     768KiB time=00:00:04.16 bitrate=1510.0kbits/s speed=0.0216x elapsed=0:03:12.58    \nframe=  127 fps=0.7 q=44.9 size=     768KiB time=00:00:04.16 bitrate=1510.0kbits/s speed=0.0216x elapsed=0:03:13.10    \nframe=  128 fps=0.7 q=40.0 size=     768KiB time=00:00:04.20 bitrate=1498.0kbits/s speed=0.0217x elapsed=0:03:13.61    \nframe=  129 fps=0.7 q=41.7 size=     768KiB time=00:00:04.23 bitrate=1486.3kbits/s speed=0.0218x elapsed=0:03:14.12    \nframe=  129 fps=0.7 q=41.7 size=     768KiB time=00:00:04.23 bitrate=1486.3kbits/s speed=0.0217x elapsed=0:03:14.65    \nframe=  130 fps=0.7 q=44.4 size=     768KiB time=00:00:04.26 bitrate=1474.6kbits/s speed=0.0219x elapsed=0:03:15.17    \nframe=  132 fps=0.7 q=44.3 size=     768KiB time=00:00:04.33 bitrate=1452.0kbits/s speed=0.0221x elapsed=0:03:15.68    \nframe=  132 fps=0.7 q=44.3 size=     768KiB time=00:00:04.33 bitrate=1452.0kbits/s speed=0.0221x elapsed=0:03:16.20    \nframe=  132 fps=0.7 q=44.3 size=     768KiB time=00:00:04.33 bitrate=1452.0kbits/s speed=0.022x elapsed=0:03:16.72    \nframe=  133 fps=0.7 q=40.1 size=     768KiB time=00:00:04.36 bitrate=1440.9kbits/s speed=0.0221x elapsed=0:03:17.22    \nframe=  133 fps=0.7 q=40.1 size=     768KiB time=00:00:04.36 bitrate=1440.9kbits/s speed=0.0221x elapsed=0:03:17.74    \nframe=  134 fps=0.7 q=43.3 size=     768KiB time=00:00:04.40 bitrate=1430.0kbits/s speed=0.0222x elapsed=0:03:18.26    \nframe=  134 fps=0.7 q=43.3 size=     768KiB time=00:00:04.40 bitrate=1430.0kbits/s speed=0.0221x elapsed=0:03:18.79    \nframe=  134 fps=0.7 q=43.3 size=     768KiB time=00:00:04.40 bitrate=1430.0kbits/s speed=0.0221x elapsed=0:03:19.35    \nframe=  134 fps=0.7 q=43.3 size=     768KiB time=00:00:04.40 bitrate=1430.0kbits/s speed=0.022x elapsed=0:03:19.88    \nframe=  134 fps=0.7 q=43.3 size=     768KiB time=00:00:04.40 bitrate=1430.0kbits/s speed=0.022x elapsed=0:03:20.42    \nframe=  134 fps=0.7 q=43.3 size=     768KiB time=00:00:04.40 bitrate=1430.0kbits/s speed=0.0219x elapsed=0:03:20.96    \nframe=  135 fps=0.7 q=44.3 size=     768KiB time=00:00:04.43 bitrate=1419.2kbits/s speed=0.022x elapsed=0:03:21.49    \nframe=  135 fps=0.7 q=44.3 size=     768KiB time=00:00:04.43 bitrate=1419.2kbits/s speed=0.0219x elapsed=0:03:22.02    \nframe=  136 fps=0.7 q=44.6 size=     768KiB time=00:00:04.46 bitrate=1408.6kbits/s speed=0.0221x elapsed=0:03:22.53    \nframe=  137 fps=0.7 q=44.7 size=     768KiB time=00:00:04.50 bitrate=1398.2kbits/s speed=0.0222x elapsed=0:03:23.07    \nframe=  137 fps=0.7 q=44.7 size=     768KiB time=00:00:04.50 bitrate=1398.2kbits/s speed=0.0221x elapsed=0:03:23.61    \nframe=  137 fps=0.7 q=44.7 size=     768KiB time=00:00:04.50 bitrate=1398.2kbits/s speed=0.022x elapsed=0:03:24.14    \nframe=  138 fps=0.7 q=39.5 size=     768KiB time=00:00:04.53 bitrate=1387.9kbits/s speed=0.0222x elapsed=0:03:24.65    \nframe=  138 fps=0.7 q=39.5 size=     768KiB time=00:00:04.53 bitrate=1387.9kbits/s speed=0.0221x elapsed=0:03:25.17    \nframe=  138 fps=0.7 q=39.5 size=     768KiB time=00:00:04.53 bitrate=1387.9kbits/s speed=0.022x elapsed=0:03:25.69    \nframe=  138 fps=0.7 q=39.5 size=     768KiB time=00:00:04.53 bitrate=1387.9kbits/s speed=0.022x elapsed=0:03:26.23    \nframe=  138 fps=0.7 q=39.5 size=     768KiB time=00:00:04.53 bitrate=1387.9kbits/s speed=0.0219x elapsed=0:03:26.73    \nframe=  138 fps=0.7 q=39.5 size=     768KiB time=00:00:04.53 bitrate=1387.9kbits/s speed=0.0219x elapsed=0:03:27.26    \nframe=  138 fps=0.7 q=39.5 size=     768KiB time=00:00:04.53 bitrate=1387.9kbits/s speed=0.0218x elapsed=0:03:27.78    \nframe=  139 fps=0.7 q=42.5 size=     768KiB time=00:00:04.56 bitrate=1377.8kbits/s speed=0.0219x elapsed=0:03:28.31    \nframe=  139 fps=0.7 q=42.5 size=     768KiB time=00:00:04.56 bitrate=1377.8kbits/s speed=0.0219x elapsed=0:03:28.81    \nframe=  140 fps=0.7 q=44.8 size=     768KiB time=00:00:04.60 bitrate=1367.8kbits/s speed=0.022x elapsed=0:03:29.33    \nframe=  140 fps=0.7 q=44.8 size=     768KiB time=00:00:04.60 bitrate=1367.8kbits/s speed=0.0219x elapsed=0:03:29.85    \nframe=  141 fps=0.7 q=44.5 size=     768KiB time=00:00:04.63 bitrate=1357.9kbits/s speed=0.022x elapsed=0:03:30.36    \nframe=  141 fps=0.7 q=44.5 size=     768KiB time=00:00:04.63 bitrate=1357.9kbits/s speed=0.022x elapsed=0:03:30.89    \nframe=  142 fps=0.7 q=40.4 size=     768KiB time=00:00:04.66 bitrate=1348.2kbits/s speed=0.0221x elapsed=0:03:31.42    \nframe=  142 fps=0.7 q=40.4 size=     768KiB time=00:00:04.66 bitrate=1348.2kbits/s speed=0.022x elapsed=0:03:31.95    \nframe=  142 fps=0.7 q=40.4 size=     768KiB time=00:00:04.66 bitrate=1348.2kbits/s speed=0.022x elapsed=0:03:32.49    \nframe=  142 fps=0.7 q=40.4 size=     768KiB time=00:00:04.66 bitrate=1348.2kbits/s speed=0.0219x elapsed=0:03:33.01    \nframe=  142 fps=0.7 q=40.4 size=     768KiB time=00:00:04.66 bitrate=1348.2kbits/s speed=0.0219x elapsed=0:03:33.53    \nframe=  143 fps=0.7 q=42.1 size=     768KiB time=00:00:04.70 bitrate=1338.7kbits/s speed=0.022x elapsed=0:03:34.07    \nframe=  143 fps=0.7 q=42.1 size=     768KiB time=00:00:04.70 bitrate=1338.7kbits/s speed=0.0219x elapsed=0:03:34.58    \nframe=  144 fps=0.7 q=44.5 size=     768KiB time=00:00:04.73 bitrate=1329.3kbits/s speed=0.022x elapsed=0:03:35.11    \nframe=  145 fps=0.7 q=44.5 size=     768KiB time=00:00:04.76 bitrate=1320.0kbits/s speed=0.0221x elapsed=0:03:35.61    \nframe=  145 fps=0.7 q=44.5 size=     768KiB time=00:00:04.76 bitrate=1320.0kbits/s speed=0.0221x elapsed=0:03:36.15    \nframe=  145 fps=0.7 q=44.5 size=     768KiB time=00:00:04.76 bitrate=1320.0kbits/s speed=0.022x elapsed=0:03:36.66    \nframe=  146 fps=0.7 q=41.4 size=     768KiB time=00:00:04.80 bitrate=1310.8kbits/s speed=0.0221x elapsed=0:03:37.18    \nframe=  146 fps=0.7 q=41.4 size=     768KiB time=00:00:04.80 bitrate=1310.8kbits/s speed=0.022x elapsed=0:03:37.69    \nframe=  146 fps=0.7 q=41.4 size=     768KiB time=00:00:04.80 bitrate=1310.8kbits/s speed=0.022x elapsed=0:03:38.22    \nframe=  147 fps=0.7 q=43.1 size=     768KiB time=00:00:04.83 bitrate=1301.8kbits/s speed=0.0221x elapsed=0:03:38.76    \nframe=  147 fps=0.7 q=43.1 size=     768KiB time=00:00:04.83 bitrate=1301.8kbits/s speed=0.022x elapsed=0:03:39.38    \nframe=  147 fps=0.7 q=43.1 size=     768KiB time=00:00:04.83 bitrate=1301.8kbits/s speed=0.022x elapsed=0:03:39.92    \nframe=  147 fps=0.7 q=43.1 size=     768KiB time=00:00:04.83 bitrate=1301.8kbits/s speed=0.0219x elapsed=0:03:40.45    \nframe=  147 fps=0.7 q=43.1 size=     768KiB time=00:00:04.83 bitrate=1301.8kbits/s speed=0.0219x elapsed=0:03:40.98    \nframe=  149 fps=0.7 q=44.4 size=     768KiB time=00:00:04.90 bitrate=1284.0kbits/s speed=0.0221x elapsed=0:03:41.50    \n[mp4 @ 00000114b00c9740] Starting second pass: moving the moov atom to the beginning of the file\n[out#0/mp4 @ 00000114b00babc0] video:936KiB audio:0KiB subtitle:0KiB other streams:0KiB global headers:2KiB muxing overhead: 0.548308%\nframe=  150 fps=0.7 q=44.2 Lsize=     941KiB time=00:00:04.93 bitrate=1563.0kbits/s speed=0.0222x elapsed=0:03:41.87    \nx265 [info]: frame I:      1, Avg QP:40.30  kb/s: 2997.84 \nx265 [info]: frame P:     37, Avg QP:39.95  kb/s: 3045.51 \nx265 [info]: frame B:    112, Avg QP:43.29  kb/s: 1019.95 \nx265 [info]: Weighted P-Frames: Y:24.3% UV:18.9%\n\nencoded 150 frames in 221.66s (0.68 fps), 1532.78 kb/s, Avg QP:42.44\n",
  "seconds": 222.17367267608643,
  "probe_out": {}
}